PathFileType	4	(X/Y/Z)	C:\Users\Biomechanik\SynologyDrive\AlexP\Athlete_03\Athlete_3_25_03_31\Walking_09\marker_experimental.trc
DataRate	CameraRate	NumFrames	NumMarkers	Units	OrigDataRate	OrigDataStartFrame	OrigNumFrames
200.000000	200.000000	4	53	mm	200.000000	166	222
Frame#	Time	GLAB			RFHD			LFHD			C7			T6			SPINMOL			SPINM2			SPINM3			T12			BELTOL			BELT2			BELT3			SACROL			SACR2			SACR3			LTHOL			LTH2			LTH3			LSHAOL			LSHA2			LSHA3			LHEE			LTOE			LM5			RTH2			RTH3			RSHAOL			RSHA2			RSHA3			RHEE			RTOE			RM5			STRN			XIPH			LACR			LUAOL			LUA2			LUA3			LLAOL			LLA2			LLA3			LWRR			LWRU			RACR			RUAOL			RUA2			RUA3			RLAOL			RLA2			RLA3			RWRR			RWRU			RTHOL			
		X1	Y1	Z1	X2	Y2	Z2	X3	Y3	Z3	X4	Y4	Z4	X5	Y5	Z5	X6	Y6	Z6	X7	Y7	Z7	X8	Y8	Z8	X9	Y9	Z9	X10	Y10	Z10	X11	Y11	Z11	X12	Y12	Z12	X13	Y13	Z13	X14	Y14	Z14	X15	Y15	Z15	X16	Y16	Z16	X17	Y17	Z17	X18	Y18	Z18	X19	Y19	Z19	X20	Y20	Z20	X21	Y21	Z21	X22	Y22	Z22	X23	Y23	Z23	X24	Y24	Z24	X25	Y25	Z25	X26	Y26	Z26	X27	Y27	Z27	X28	Y28	Z28	X29	Y29	Z29	X30	Y30	Z30	X31	Y31	Z31	X32	Y32	Z32	X33	Y33	Z33	X34	Y34	Z34	X35	Y35	Z35	X36	Y36	Z36	X37	Y37	Z37	X38	Y38	Z38	X39	Y39	Z39	X40	Y40	Z40	X41	Y41	Z41	X42	Y42	Z42	X43	Y43	Z43	X44	Y44	Z44	X45	Y45	Z45	X46	Y46	Z46	X47	Y47	Z47	X48	Y48	Z48	X49	Y49	Z49	X50	Y50	Z50	X51	Y51	Z51	X52	Y52	Z52	X53	Y53	Z53	

167	0.8300000000000001	682.4640502929686	1603.823974609375	183.8361206054689	633.0460815429686	1635.208740234375	246.7494201660157	640.9824829101561	1624.013549804688	108.6770782470704	454.042755126953	1446.822265625	183.1894073486329	398.055694580078	1276.831909179688	183.7279052734376	391.084747314453	1236.855224609375	162.4244537353516	384.744415283203	1229.488525390625	211.9932861328126	395.9260864257811	1172.790649414062	178.5513153076173	420.1134338378905	1107.678833007812	181.4898529052735	385.2712097167968	1073.314697265625	165.1643981933594	383.8505554199218	1070.927001953125	215.6293945312501	379.9827880859374	1011.235717773438	185.9888305664063	396.9975280761718	962.9105834960938	169.3009033203126	399.2132873535155	960.6893920898438	220.9194641113282	384.2329101562499	902.2081909179688	193.1064910888672	498.4359436035156	681.3430786132812	15.19574260711679	449.3202514648437	626.1355590820312	44.19298171997079	497.5895996093749	621.9663696289062	31.5140266418458	482.9155883789062	324.2877197265626	40.88750839233407	432.7023315429688	264.143310546875	55.22766113281258	482.7908935546875	262.8150939941407	50.29482269287118	409.8460693359375	74.31685638427737	148.9318084716798	627.9468994140625	45.82021331787113	145.9302062988282	578.1160888671875	30.32787513732914	44.89269638061534	621.9356689453124	651.0609741210938	409.3723144531251	582.0433959960936	629.5990600585938	390.1730346679689	536.4356079101561	415.2485961914063	386.5272216796876	522.9451293945311	338.0778503417969	380.055389404297	493.8783264160156	374.9219360351563	365.1967163085939	352.8837585449218	228.1777954101563	236.5281677246094	502.0663452148437	82.20362091064456	271.361297607422	440.4166259765624	104.2025222778321	362.0449218750001	623.1230468749999	1347.353515625	188.280975341797	641.1958618164061	1203.564086914062	191.1494445800782	533.9642333984374	1406.307006835938	10.73236751556406	540.3698120117186	1249.663940429688	-87.53605651855459	533.1268920898436	1187.018310546875	-106.4471130371093	577.1702270507811	1195.280517578125	-81.5018310546874	597.4122924804686	990.29931640625	-127.5082626342772	573.0355834960938	917.122314453125	-110.8681030273437	618.5613403320311	932.6591186523438	-124.0952682495116	663.4472045898438	839.2077026367188	-121.1655807495116	701.9622802734375	854.00244140625	-52.89785003662097	536.007873535156	1406.345581054688	356.0301208496095	512.1737060546873	1260.615356445312	457.5943908691407	533.6712646484373	1198.734985351562	467.9261779785157	484.0459594726561	1204.990234375	479.7659606933595	514.5787353515623	986.3516235351562	520.4579467773439	571.0261230468748	937.875	549.9180297851564	528.8545532226561	925.3143920898438	526.3784790039064	570.8234252929686	846.5098266601562	544.0065917968751	609.0904541015624	830.1342163085938	473.7105407714845	551.6190795898436	682.8197631835938	392.644256591797	
168	0.835	689.1562499999999	1603.976440429688	184.0380249023439	639.7468872070311	1635.320068359375	246.9851684570314	647.7203979492186	1624.331909179688	108.8939514160157	460.5994567871092	1447.177978515625	183.0468750000001	404.537139892578	1277.166381835938	183.4293975830079	397.5451660156249	1237.186767578125	162.1128845214845	391.2857360839843	1229.806030273438	211.6743164062501	402.4068908691405	1173.124877929688	178.2408752441407	426.5679321289061	1108.029052734375	181.258514404297	391.5755920410155	1073.63134765625	165.1708984375001	390.2691345214843	1071.2568359375	215.6364746093751	386.3371582031249	1011.565551757812	186.0168914794922	403.2299194335936	963.1696166992188	169.520965576172	405.6359863281249	961.03271484375	221.1631774902345	390.6296081542968	902.470458984375	193.4521026611329	501.9914855957031	682.0446166992188	15.03960037231455	452.5476684570312	627.3203125	44.43010330200204	500.6975402832031	622.6731567382812	31.44257545471201	483.9774169921875	324.8692321777344	40.94898605346689	433.5296325683594	264.9403686523438	55.36029052734383	483.6257934570312	263.4064331054688	50.42985534667978	410.1899719238281	75.04229736328128	149.0531311035157	628.092529296875	45.75018692016605	145.9097595214845	578.1561889648438	30.33190917968754	44.86693954467784	631.7398071289061	652.4218139648438	408.3242187500001	591.7625122070311	630.6619262695312	389.9747009277345	548.9393310546874	412.9267578125001	385.7611694335939	537.6602172851561	335.4237060546876	378.7371520996095	507.3290405273437	371.5516967773438	364.5591735839845	369.6005859374999	220.939682006836	235.9337005615235	524.0655517578125	80.49028015136722	270.4790649414064	461.8985900878906	100.215202331543	361.2778625488282	629.6044311523436	1347.682983398438	188.2257537841798	647.4725952148436	1203.8662109375	190.8554840087892	540.6325683593749	1406.931640625	10.66540336608897	547.8048095703124	1250.637451171875	-87.98373413085928	540.8623046874999	1187.989990234375	-106.9940109252929	584.9159545898436	1196.470947265625	-82.10040283203114	607.6347045898436	991.8336791992188	-128.1838531494139	584.375732421875	918.3097534179688	-111.5082397460936	629.7033691406249	934.566162109375	-124.5574493408202	676.1104125976562	841.8675537109375	-121.2132186889647	714.1432495117188	857.5070190429688	-52.86864089965808	542.3659667968748	1406.530029296875	355.9552001953126	517.581848144531	1260.887817382812	457.5092163085939	538.7575683593748	1198.904052734375	467.9612121582032	489.0720214843748	1205.373413085938	479.439422607422	518.283264160156	986.7507934570312	520.5360107421876	574.142883300781	937.9306030273438	550.4827880859376	532.1377563476561	925.6220092773438	526.6348876953126	573.3845825195311	846.5399780273438	544.6536865234376	612.0319824218749	829.7902221679688	474.6556396484376	560.9561767578124	683.5357666015625	392.782928466797	
169	0.84	695.8532104492186	1604.076538085938	184.2649841308595	646.4518432617186	1635.374389648438	247.2454528808595	654.4624633789061	1624.596801757812	109.1367568969728	467.1681213378905	1447.47998046875	182.9261474609376	411.0181884765624	1277.451538085938	183.1632385253907	403.9988403320311	1237.467163085938	161.8382415771485	397.8247680664061	1230.075927734375	211.3928680419923	408.8802185058593	1173.4091796875	177.9713134765626	433.0105590820311	1108.32666015625	181.0750885009766	397.8791198730468	1073.891235351562	165.2354278564454	396.6925354003905	1071.5322265625	215.7012023925782	392.6822204589843	1011.840026855469	186.1051330566407	409.4447631835936	963.3821411132812	169.7761535644532	412.0440673828124	961.3056640625	221.4412536621095	397.0300903320311	902.6707763671875	193.804183959961	505.6008605957031	682.7072143554688	14.89274883270273	455.8243103027343	628.4488525390625	44.62458419799813	503.8569641113281	623.3434448242188	31.35732460021982	485.1097412109375	325.4415588378907	41.01025772094736	434.41943359375	265.7323608398438	55.47266387939461	484.5228881835938	263.9903259277344	50.56135940551767	410.5284118652344	75.78283691406253	149.1725006103516	628.237548828125	45.6745643615723	145.8912353515626	578.2032470703125	30.34096527099613	44.84243392944347	641.4249267578124	653.697265625	407.2486572265626	601.3731689453124	631.6656494140625	389.7442321777345	561.4022827148436	410.4879150390626	384.9745178222657	552.3760375976561	332.7039794921876	377.4561462402345	520.7918090820311	368.0493469238282	363.9169921875001	386.5681152343749	213.5290222167969	235.4329223632813	546.1461181640625	78.8172302246094	269.658416748047	483.5325927734374	96.21168518066409	360.5781250000001	636.0960083007811	1347.941162109375	188.1899566650392	653.7225341796874	1204.092895507812	190.5756072998048	547.3171997070311	1407.493530273438	10.62336349487315	555.2327270507811	1251.559204101562	-88.40982818603506	548.5703124999999	1188.909545898438	-107.5093002319335	592.6454467773436	1197.604370117188	-82.68466949462879	617.8160400390624	993.349853515625	-128.8527221679686	595.6812133789062	919.494384765625	-112.1376495361327	640.7985229492186	936.469970703125	-125.0052032470702	688.7100219726562	844.5457763671875	-121.2303009033202	726.2572631835938	861.0367431640625	-52.8221511840819	548.7336425781248	1406.651123046875	355.9002990722657	523.0034179687498	1261.110107421875	457.4378051757814	543.8569335937498	1199.017578125	468.0088806152345	494.1137390136717	1205.704833984375	479.1339721679689	522.0036621093748	987.0963134765625	520.6187744140626	577.273498535156	937.9466552734375	551.0511474609376	535.4618530273436	925.8721313476562	526.8855590820314	575.9783325195311	846.5301513671875	545.2867431640626	615.0449218749999	829.43701171875	475.6034240722657	570.2111206054686	684.2005004882812	392.9007263183595	
170	0.845	702.5561523437499	1604.12255859375	184.5165863037111	653.1621093749999	1635.370239257812	247.5296478271486	661.2097167968749	1624.806274414062	109.4051742553712	473.7487487792967	1447.72607421875	182.8272094726563	417.4996643066405	1277.685424804688	182.9298248291016	410.4470214843749	1237.694702148438	161.6011352539063	404.3609008789061	1230.296875	211.1500396728516	415.3471069335936	1173.641479492188	177.7431793212891	439.4424743652343	1108.570190429688	180.9389190673829	404.1835937499999	1074.098754882812	165.3557586669923	403.1231079101561	1071.75634765625	215.8213500976563	399.018829345703	1012.063537597656	186.2508239746095	415.6458129882811	963.5535278320312	170.0666961669923	418.4406738281249	961.512939453125	221.7533111572266	403.4291687011718	902.8167724609375	194.1631164550782	509.2669982910156	683.326904296875	14.75443363189707	459.1515502929687	629.5180053710938	44.77483749389657	507.0707397460937	623.9732666015625	31.25837898254404	486.3056335449219	326.0020446777344	41.07119369506845	435.3648071289062	266.5187072753906	55.57414245605477	485.4741516113281	264.5636901855469	50.68856811523447	410.859375	76.53391265869143	149.291244506836	628.3814697265625	45.59360885620121	145.874237060547	578.2568969726562	30.35491943359379	44.81962203979503	650.9914550781249	654.880859375	406.1479492187501	610.8752441406249	632.5995483398438	389.4751281738282	573.8225708007811	407.9411315917969	384.1675415039064	567.0840454101561	329.9322204589844	376.2201538085939	534.2657470703124	364.4287414550782	363.2702941894532	403.7904968261718	205.9773101806641	235.0263061523438	568.29248046875	77.19611358642581	268.9054565429689	505.3030090332031	92.21489715576175	359.9512023925782	642.5988769531249	1348.12744140625	188.1733551025392	659.9484863281249	1204.243408203125	190.3099212646486	554.0177001953124	1407.991088867188	10.60673141479502	562.6539306640624	1252.42724609375	-88.81249237060537	556.2550048828124	1189.7744140625	-107.990753173828	600.3620605468749	1198.68017578125	-83.25163269042957	627.9581909179686	994.8467407226562	-129.5133666992186	606.9505615234375	920.6757202148438	-112.7586822509764	651.8467407226561	938.36865234375	-125.4378662109374	701.241943359375	847.2384643554688	-121.2172393798827	738.2987060546875	864.585693359375	-52.75731277465807	555.1104736328123	1406.70849609375	355.8655090332032	528.4400634765623	1261.2802734375	457.3800048828126	548.9726562499998	1199.0751953125	468.068817138672	499.1742858886717	1205.982788085938	478.8502807617189	525.7454833984373	987.3882446289062	520.7061767578126	580.4250488281248	937.9223022460938	551.6201171875001	538.8356933593749	926.0620727539062	527.1286010742189	578.6084594726561	846.4783935546875	545.9050903320314	618.1296997070311	829.070068359375	476.5536499023439	579.3792114257811	684.807373046875	392.9919738769532	
